# xmcd
#
# Track frame offsets:
#	150
#	11876
#	23071
#	31833
#	44404
#	54814
#	65774
#	77555
#	88776
#	99078
#	111535
#	121296
#
# Disc length: 1743 seconds
#
# Revision: 1
# Processed by: cddbd v1.5.2PL0 Copyright (c) Steve Scherf et al.
# Submitted via: audiograbber 1.83.01
#
DISCID=9206cd0c
DTITLE=George Jones - Heartaches And Tears
DYEAR=1965
DGENRE=Country
TTITLE0=I've Got a New Heartache (w/Gene Pitney)
TTITLE1=Flame In My Heart
TTITLE2=You Gotta Be My Baby
TTITLE3=You're Back Again
TTITLE4=When Two Worlds Collide
TTITLE5=Tender Years
TTITLE6=The Window Up Above
TTITLE7=Everything Ain't Right
TTITLE8=I Can't Help It
TTITLE9=Yearning
TTITLE10=No Use To Cry
TTITLE11=I'm With The Wrong One
EXTD=
EXTT0=
EXTT1=
EXTT2=
EXTT3=
EXTT4=
EXTT5=
EXTT6=
EXTT7=
EXTT8=
EXTT9=
EXTT10=
EXTT11=
PLAYORDER=
